# xmcd
#
# Track frame offsets:
#	183
#	11508
#	26295
#	40958
#	55333
#	74383
#	87933
#	101258
#	114383
#	130295
#	139070
#	160208
#
# Disc length: 2318 seconds
#
# Revision: 3
# Processed by: cddbd v1.5.2PL0 Copyright (c) Steve Scherf et al.
# Submitted via: EasyCDDAExtractor 16.0.6.1
#
DISCID=97090c0c
DTITLE=Various Artist - Honky Angles
DYEAR=1900
DGENRE=Country
TTITLE0=Kathy Mattea - Street Talk
TTITLE1=Tanya Tucker - Whats Your Mama's Name
TTITLE2=Lorrie Morgan - Please Mr. Please
TTITLE3=Kathy Mattea - Heart Of The Country
TTITLE4=Tanya tucker - Delta Dawn
TTITLE5=Lorrie Morgan - Stuck On You
TTITLE6=Kathy Mattea - BAll And Chain
TTITLE7=Tanya Tucker - San Antonio Stroll
TTITLE8=Lorrie Morgan - You'e Getting To ME
TTITLE9=Kathy Mattea - Put Yourself In My Place
TTITLE10=Tanya Tucker - Texas (When I Die)
TTITLE11=Lorrie Morgan - Love Is Fair
EXTD=
EXTT0=
EXTT1=
EXTT2=
EXTT3=
EXTT4=
EXTT5=
EXTT6=
EXTT7=
EXTT8=
EXTT9=
EXTT10=
EXTT11=
PLAYORDER=
